<svg width="208" height="208" viewBox="0 0 208 208" fill="none" xmlns="http://www.w3.org/2000/svg">
<g filter="url(#filter0_d_550_2542)">
<path d="M141.004 0L126.375 36.2195H79.0351L64.4062 0H141.004Z" fill="#C1DFF9"/>
<path d="M202.048 56.2281L165.444 71.4598L132.204 38.4496L148.264 2.81641L202.048 56.2281Z" fill="#748CDB"/>
<path d="M6.87759 143.672L43.5261 128.543L76.6702 161.646L60.5059 197.234L6.87759 143.672Z" fill="#E3E3E3"/>
<path d="M4 61.9723L40.9831 76.2991L40.9831 122.662L4 136.988L4 61.9723Z" fill="#E3E3E3"/>
<path d="M57.6455 2.81731L73.7984 38.4102L40.6437 71.5034L4 56.3633L57.6455 2.81731Z" fill="#E3E3E3"/>
<path d="M151.938 197.957L134.754 162.83L166.93 128.823L204 142.932L151.938 197.957Z" fill="#E3E3E3"/>
<path d="M203.297 137.557L166.314 123.23V76.8678L203.297 62.541V137.557Z" fill="#163B88"/>
<path d="M67.4778 200L81.913 163.706L129.252 163.463L144.074 199.607L67.4778 200Z" fill="#E3E3E3"/>
</g>
<defs>
<filter id="filter0_d_550_2542" x="0" y="0" width="208" height="208" filterUnits="userSpaceOnUse" color-interpolation-filters="sRGB">
<feFlood flood-opacity="0" result="BackgroundImageFix"/>
<feColorMatrix in="SourceAlpha" type="matrix" values="0 0 0 0 0 0 0 0 0 0 0 0 0 0 0 0 0 0 127 0" result="hardAlpha"/>
<feOffset dy="4"/>
<feGaussianBlur stdDeviation="2"/>
<feComposite in2="hardAlpha" operator="out"/>
<feColorMatrix type="matrix" values="0 0 0 0 0 0 0 0 0 0 0 0 0 0 0 0 0 0 0.25 0"/>
<feBlend mode="normal" in2="BackgroundImageFix" result="effect1_dropShadow_550_2542"/>
<feBlend mode="normal" in="SourceGraphic" in2="effect1_dropShadow_550_2542" result="shape"/>
</filter>
</defs>
</svg>
