<svg width="410" height="505" viewBox="0 0 410 505" fill="none" xmlns="http://www.w3.org/2000/svg">
<g filter="url(#filter0_d_1877_13382)">
<rect x="20" y="70.1016" width="160" height="160" transform="rotate(-16 20 70.1016)" fill="#748CDB"/>
</g>
<g filter="url(#filter1_d_1877_13382)">
<rect x="161" y="412.393" width="80" height="80" transform="rotate(-32 161 412.393)" fill="#7990A3"/>
</g>
<g filter="url(#filter2_d_1877_13382)">
<rect x="227.337" y="195" width="120" height="120" transform="rotate(28 227.337 195)" fill="#163B88"/>
</g>
<g filter="url(#filter3_d_1877_13382)">
<rect x="191.891" y="16" width="200" height="200" transform="rotate(8 191.891 16)" fill="#C1DFF9"/>
</g>
<path d="M237.969 90.1248L239.611 76.6244L312.495 86.8675C315.347 87.2684 317.459 87.5653 318.833 87.7583C320.311 87.9661 322.305 88.354 324.815 88.9221C327.443 89.3991 329.43 89.84 330.778 90.2447C332.125 90.6495 333.823 91.265 335.871 92.0914C337.932 92.8118 339.498 93.6243 340.57 94.5288C341.642 95.4333 342.8 96.5115 344.044 97.7633C345.289 99.0152 346.19 100.434 346.749 102.021C347.321 103.501 347.703 105.224 347.893 107.189C348.189 109.169 348.196 111.324 347.912 113.654L346.656 123.978C346.373 126.307 345.851 128.388 345.091 130.219C344.437 132.066 343.65 133.678 342.73 135.057C341.823 136.33 340.618 137.399 339.116 138.265C337.614 139.131 336.237 139.852 334.985 140.43C333.733 141.008 332.019 141.413 329.842 141.646C327.678 141.773 325.896 141.845 324.497 141.864C323.098 141.883 321.065 141.813 318.399 141.653C315.851 141.403 313.838 141.174 312.359 140.966C310.986 140.773 308.873 140.476 306.021 140.075L296.515 138.739C294.402 138.442 292.811 138.272 291.742 138.23C290.673 138.187 289.552 138.568 288.38 139.373C287.221 140.071 286.538 141.268 286.332 142.962L285.076 153.286L261.309 149.946L262.275 142.004C262.559 139.675 263.028 137.587 263.682 135.74C264.442 133.909 265.276 132.356 266.182 131.084C267.102 129.705 268.313 128.583 269.815 127.717C271.317 126.851 272.694 126.129 273.946 125.552C275.198 124.974 276.906 124.621 279.071 124.495C281.248 124.262 283.036 124.137 284.434 124.118C285.833 124.099 287.807 124.215 290.355 124.465C293.021 124.625 295.041 124.801 296.414 124.994C297.893 125.202 300.058 125.506 302.91 125.907L312.417 127.243C314.53 127.54 316.12 127.709 317.19 127.752C318.259 127.795 319.373 127.466 320.532 126.768C321.705 125.963 322.394 124.714 322.6 123.02L324.436 107.931C324.642 106.237 324.268 104.892 323.315 103.897C322.375 102.795 321.383 102.117 320.34 101.863C319.296 101.609 317.718 101.333 315.606 101.036L237.969 90.1248ZM256.961 185.682L259.28 166.623L283.046 169.963L280.727 189.022L256.961 185.682Z" fill="#748CDB"/>
<defs>
<filter id="filter0_d_1877_13382" x="0" y="10" width="237.904" height="237.904" filterUnits="userSpaceOnUse" color-interpolation-filters="sRGB">
<feFlood flood-opacity="0" result="BackgroundImageFix"/>
<feColorMatrix in="SourceAlpha" type="matrix" values="0 0 0 0 0 0 0 0 0 0 0 0 0 0 0 0 0 0 127 0" result="hardAlpha"/>
<feOffset dy="4"/>
<feGaussianBlur stdDeviation="10"/>
<feComposite in2="hardAlpha" operator="out"/>
<feColorMatrix type="matrix" values="0 0 0 0 0 0 0 0 0 0 0 0 0 0 0 0 0 0 0.25 0"/>
<feBlend mode="normal" in2="BackgroundImageFix" result="effect1_dropShadow_1877_13382"/>
<feBlend mode="normal" in="SourceGraphic" in2="effect1_dropShadow_1877_13382" result="shape"/>
</filter>
<filter id="filter1_d_1877_13382" x="141" y="354" width="150.237" height="150.236" filterUnits="userSpaceOnUse" color-interpolation-filters="sRGB">
<feFlood flood-opacity="0" result="BackgroundImageFix"/>
<feColorMatrix in="SourceAlpha" type="matrix" values="0 0 0 0 0 0 0 0 0 0 0 0 0 0 0 0 0 0 127 0" result="hardAlpha"/>
<feOffset dy="4"/>
<feGaussianBlur stdDeviation="10"/>
<feComposite in2="hardAlpha" operator="out"/>
<feColorMatrix type="matrix" values="0 0 0 0 0 0 0 0 0 0 0 0 0 0 0 0 0 0 0.25 0"/>
<feBlend mode="normal" in2="BackgroundImageFix" result="effect1_dropShadow_1877_13382"/>
<feBlend mode="normal" in="SourceGraphic" in2="effect1_dropShadow_1877_13382" result="shape"/>
</filter>
<filter id="filter2_d_1877_13382" x="151" y="179" width="202.291" height="202.291" filterUnits="userSpaceOnUse" color-interpolation-filters="sRGB">
<feFlood flood-opacity="0" result="BackgroundImageFix"/>
<feColorMatrix in="SourceAlpha" type="matrix" values="0 0 0 0 0 0 0 0 0 0 0 0 0 0 0 0 0 0 127 0" result="hardAlpha"/>
<feOffset dy="4"/>
<feGaussianBlur stdDeviation="10"/>
<feComposite in2="hardAlpha" operator="out"/>
<feColorMatrix type="matrix" values="0 0 0 0 0 0 0 0 0 0 0 0 0 0 0 0 0 0 0.25 0"/>
<feBlend mode="normal" in2="BackgroundImageFix" result="effect1_dropShadow_1877_13382"/>
<feBlend mode="normal" in="SourceGraphic" in2="effect1_dropShadow_1877_13382" result="shape"/>
</filter>
<filter id="filter3_d_1877_13382" x="144.056" y="0" width="265.889" height="265.889" filterUnits="userSpaceOnUse" color-interpolation-filters="sRGB">
<feFlood flood-opacity="0" result="BackgroundImageFix"/>
<feColorMatrix in="SourceAlpha" type="matrix" values="0 0 0 0 0 0 0 0 0 0 0 0 0 0 0 0 0 0 127 0" result="hardAlpha"/>
<feOffset dy="4"/>
<feGaussianBlur stdDeviation="10"/>
<feComposite in2="hardAlpha" operator="out"/>
<feColorMatrix type="matrix" values="0 0 0 0 0 0 0 0 0 0 0 0 0 0 0 0 0 0 0.25 0"/>
<feBlend mode="normal" in2="BackgroundImageFix" result="effect1_dropShadow_1877_13382"/>
<feBlend mode="normal" in="SourceGraphic" in2="effect1_dropShadow_1877_13382" result="shape"/>
</filter>
</defs>
</svg>
