<svg width="64" height="64" viewBox="0 0 64 64" fill="none" xmlns="http://www.w3.org/2000/svg">
<rect width="64" height="64" rx="32" fill="#163B88"/>
<path fill-rule="evenodd" clip-rule="evenodd" d="M18.0204 43.2909C17.3928 43.1052 16.8201 42.7749 16.3507 42.3278C15.8813 41.8807 15.529 41.3299 15.3235 40.722C14.1491 37.5798 13.8011 24.4591 16.063 21.8689C16.8158 21.0263 17.8786 20.5075 19.0208 20.4252C25.0888 19.7883 43.8364 19.8732 45.9895 20.6375C46.5951 20.8293 47.1484 21.1524 47.6079 21.5826C48.0674 22.0128 48.4212 22.5389 48.6429 23.1215C49.9261 26.3699 49.9696 38.1743 48.4689 41.2952C48.0708 42.1076 47.4043 42.7657 46.5767 43.1635C44.3148 44.2675 21.0217 44.2463 18.0204 43.2909ZM27.6551 37.1339L38.5296 31.6139L27.6551 26.0514V37.1339Z" fill="white"/>
</svg>
